<?xml version="1.0" encoding="UTF-8"?>
<svg xmlns="http://www.w3.org/2000/svg" width="50" height="50">
	<path fill="#FFF" d="M 12.832014,11.862896 C 16.152185,4.6841466 15.613779,4.9533497 16.511123,4.9533497 C 17.408466,4.9533497 18.216076,6.8377713 19.113419,6.9275057 C 20.010763,7.0172401 36.432151,6.9275057 36.432151,6.9275057 L 37.060292,10.696349 L 28.894465,21.374738 C 28.894465,21.374738 32.483839,22.720754 33.650386,23.977035 C 34.816933,25.233316 37.060292,27.207472 36.970558,32.232596 C 36.880823,37.25772 32.842777,43.090454 25.30509,43.090454 C 17.767404,43.090454 14.716436,37.796127 14.716436,37.796127 C 14.716436,37.796127 19.292888,42.013642 24.497481,42.013642 C 29.702074,42.013642 33.11198,38.962673 32.932511,33.040205 C 32.753043,27.117737 29.343137,23.977035 24.407747,23.8873 C 19.472357,23.797566 21.087575,23.797566 21.087575,23.797566 L 33.650386,10.337412 L 16.780326,10.068208 L 13.549889,12.849974 L 12.832014,11.862896 z"/>
</svg>