<?xml version="1.0" standalone="no"?>
<!DOCTYPE svg PUBLIC "-//W3C//DTD SVG 20010904//EN"
 "http://www.w3.org/TR/2001/REC-SVG-20010904/DTD/svg10.dtd">
<svg version="1.0" xmlns="http://www.w3.org/2000/svg"
 width="127pt" height="137pt" viewBox="0 0 127 137"
 preserveAspectRatio="xMidYMid meet">
<metadata>
Created by potrace 1.7, written by Peter Selinger 2001-2005
</metadata>
<g transform="translate(0,137) scale(0.040000,-0.040000)"
fill="#000000" stroke="none">
<path d="M1205 3395 c-346 -49 -602 -161 -872 -382 -38 -31 -223 -242 -246
-280 -10 -16 14 -53 33 -53 8 0 48 27 89 59 64 52 219 138 306 169 141 52 318
77 495 69 380 -17 658 -157 916 -462 129 -153 215 -330 259 -537 21 -98 21
-386 0 -486 -39 -186 -117 -359 -226 -501 -102 -134 -295 -300 -439 -377 -212
-115 -512 -162 -760 -119 -141 24 -213 46 -330 98 -83 38 -225 135 -312 214
-69 63 -126 53 -99 -19 13 -35 120 -174 183 -238 260 -265 524 -417 863 -496
115 -28 130 -29 375 -29 245 0 260 1 375 29 247 58 384 122 641 296 66 45 255
226 318 304 161 199 255 385 315 624 42 170 55 297 48 502 -13 422 -149 758
-434 1073 -285 315 -606 483 -1038 543 -122 16 -339 16 -460 -1z m610 -109
c325 -75 580 -225 813 -479 263 -286 391 -579 423 -959 22 -263 -12 -500 -104
-733 -181 -460 -639 -861 -1112 -971 -304 -70 -643 -57 -920 38 -147 49 -374
176 -476 265 -86 75 -94 82 -79 83 9 0 24 -6 35 -14 30 -20 160 -64 260 -88
117 -28 419 -35 535 -13 158 31 332 96 445 167 220 140 412 345 515 553 88
179 124 316 135 522 23 410 -115 756 -422 1055 -146 142 -364 261 -573 312
-237 58 -561 45 -779 -32 -44 -16 -83 -27 -85 -24 -12 11 163 131 271 186 256
128 437 166 773 162 204 -2 236 -5 345 -30z"/>
</g>
</svg>
