<?xml version="1.0" encoding="UTF-8"?>
<svg width="200" height="200" xmlns="http://www.w3.org/2000/svg">
	<line stroke-width="10" x1="101" x2="101" y2="163.103" y1="11" stroke="#FFF"/>
	<line stroke="#FFF" stroke-width="10" x1="62.53799" y1="37.487" x2="139.46199" y2="37.487"/>
	<line stroke="#FFF" stroke-width="10" x1="49.718" y1="84.923" x2="152.282" y2="84.923"/>
	<path fill="none" stroke-width="10" d="m24.4709,158c0,-16 12,-28 30,-28c18,0 36.4853,20.485 45,29c8.5151,8.515 31.00009,29 48.00009,29c17,0 29,-7.883 30,-27c1,-19.117 -11,-31 -28,-31c-17,0 -33.49099,15.491 -47.99999,28c-14.5093,12.509 -25.0001,30 -46.0001,30c-21,0 -31,-14 -31,-30z" stroke="#FFF"/>
</svg>